# AST/ASF file generated using VICON BodyLanguage
# -----------------------------------------------
:version 1.10
:name VICON
:units
  mass 1.0
  length 0.45
  angle deg
:documentation
   .ast/.asf automatically generated from VICON data using
   VICON BodyBuilder and BodyLanguage model FoxedUp or BRILLIANT.MOD
:root
   order TX TY TZ RX RY RZ
   axis XYZ
   position 0 0 0  
   orientation 0 0 0 
:bonedata
  begin
     id 1 
     name lhipjoint
     direction 0.78388 -0.462562 0.414208 
     length 3.01181 
     axis 0 0 0  XYZ
  end
  begin
     id 2 
     name lfemur
     direction 0.34202 -0.939693 0  
     length 6.04673  
     axis 0 0 20  XYZ
    dof rx ry rz
    limits (-160.0 20.0)
           (-70.0 70.0)
           (-60.0 70.0)
  end
  begin
     id 3 
     name ltibia
     direction 0.34202 -0.939693 0   
     length 7.211   
     axis 0 0 20   XYZ
    dof rx
    limits (-10.0 170.0)
  end
  begin
     id 4 
     name lfoot
     direction 0.121887 -0.334882 0.934344   
     length 2.13567   
     axis -90 7.62852e-016 20   XYZ
    dof rx rz
    limits (-45.0 90.0)
           (-70.0 20.0)
  end
  begin
     id 5 
     name ltoes
     direction 1.53555e-011 -4.2179e-011 1   
     length 1.05957   
     axis -90 7.62852e-016 20   XYZ
    dof rx
    limits (-90.0 20.0)
  end
  begin
     id 6 
     name rhipjoint
     direction -0.769387 -0.475875 0.426129   
     length 2.92756  
     axis 0 0 0  XYZ 
  end
  begin
     id 7 
     name rfemur
     direction -0.34202 -0.939693 0   
     length 6.35468   
     axis 0 0 -20   XYZ
    dof rx ry rz
    limits (-160.0 20.0)
           (-70.0 70.0)
           (-70.0 60.0)
  end
  begin
     id 8 
     name rtibia
     direction -0.34202 -0.939693 0   
     length 7.37886   
     axis 0 0 -20   XYZ
    dof rx
    limits (-10.0 170.0)
 end
 begin
     id 9 
     name rfoot
     direction -0.101763 -0.279592 0.954711   
     length 2.21478  
     axis -90 -7.62852e-016 -20   XYZ
    dof rx rz
    limits (-45.0 90.0)
           (-20.0 70.0)
  end
  begin
     id 10 
     name rtoes
     direction -1.53494e-011 -4.21851e-011 1   
     length 1.10506   
     axis -90 -7.62852e-016 -20   XYZ
    dof rx
    limits (-90.0 20.0)
  end
  begin
     id 11 
     name lowerback
     direction 0.00747405 0.999267 0.0375481   
     length 2.13259   
     axis 0 0 0   XYZ
    dof rx ry rz
    limits (-20.0 45.0)
           (-30.0 30.0)
           (-30.0 30.0)
  end
  begin
     id 12 
     name upperback
     direction 0.00661626 0.996177 0.0871029   
     length 2.10528   
     axis 0 0 0   XYZ
    dof rx ry rz
    limits (-20.0 45.0)
           (-30.0 30.0)
           (-30.0 30.0)
  end
  begin
     id 13 
     name thorax
     direction 0.00320659 0.997679 0.0680167   
     length 2.11338   
     axis 0 0 0   XYZ
    dof rx ry rz
    limits (-20.0 45.0)
           (-30.0 30.0)
           (-30.0 30.0)
  end
  begin
     id 14 
     name lowerneck
     direction 0.0374841 0.973033 0.227602   
     length 1.42765   
     axis 0 0 0   XYZ
    dof rx ry rz
    limits (-20.0 45.0)
           (-30.0 30.0)
           (-30.0 30.0)
  end
  begin
     id 15 
     name upperneck
     direction 0.00481585 0.989155 -0.146795   
     length 1.47593   
     axis 0 0 0   XYZ
    dof rx ry rz
    limits (-20.0 45.0)
           (-30.0 30.0)
           (-30.0 30.0)
  end
  begin
     id 16
     name head
     direction -0.00292522 0.997206 -0.0746423  
     length 1.48116  
     axis 0 0 0   XYZ
    dof rx ry rz
    limits (-20.0 45.0)
           (-30.0 30.0)
           (-30.0 30.0)
  end
  begin
     id 17 
     name lclavicle
     direction 0.951444 0.305606 0.0368784  
     length 3.01855  
     axis 0 0 0   XYZ
    dof ry rz
    limits (-20.0 10.0)
           (0.0 20.0)
  end
  begin
     id 18 
     name lhumerus
     direction 1 -4.48977e-011 2.61664e-027   
     length 5.52731   
     axis 180 -30 -90   XYZ
    dof rx ry rz
    limits (-60.0 90.0)
           (-90.0 90.0)
           (-90.0 90.0)
  end
  begin
     id 19
     name lradius
     direction 1 -4.48944e-011 8.22157e-027   
     length 3.11059   
     axis 180 -30 -90   XYZ
    dof rx
    limits (-10.0 170.0)
  end
  begin
     id 20
     name lwrist
     direction 1 -4.48976e-011 1.5779e-026   
     length 1.5553   
     axis -1.15221e-014 90 90   XYZ
    dof ry
    limits (-180.0 0.0)
 end
  begin
     id 21 
     name lhand
     direction 1 -4.49025e-011 3.1558e-026   
     length 0.419626   
     axis -2.01367e-014 90 90   XYZ
    dof rx rz
    limits (-90.0 90.0)
           (-45.0 45.0)
  end
  begin
     id 22 
     name lfingers
     direction 1 -4.4904e-011 6.31161e-026   
     length 0.338313   
     axis -4.02734e-014 90 90   XYZ
    dof rx
    limits (0.0 90.0)
  end
  begin
     id 23
     name lthumb
     direction 0.707107 -6.35004e-011 0.707107   
     length 0.485752   
     axis -90 45 2.85299e-015   XYZ
    dof rx rz
    limits (-45.0 45.0)
           (-45.0 45.0)
  end
  begin
     id 24 
     name rclavicle
     direction -0.968876 0.223791 0.105816   
     length 3.04177  
     axis 0 0 0   XYZ 
    dof ry rz
    limits (-10.0 20.0)
           (-20.0 0.0)
  end
  begin
     id 25 
     name rhumerus
     direction -1 -4.48962e-011 -1.01384e-027  
     length 5.25396   
     axis 180 30 90   XYZ
    dof rx ry rz
    limits (-90.0 60.0)
           (-90.0 90.0)
           (-90.0 90.0)
  end
  begin
     id 26 
     name rradius
     direction -1 -4.48955e-011 8.88542e-027   
     length 3.10567   
     axis 180 30 90   XYZ
    dof rx
    limits (-10.0 170.0)
  end
  begin
     id 27 
     name rwrist
     direction -1 -4.48994e-011 1.5779e-026   
     length 1.55283   
     axis -1.15221e-014 -90 -90   XYZ
    dof ry
    limits (-180.0 0.0)
  end
  begin
     id 28
     name rhand
     direction -1 -4.48891e-011 3.1558e-026   
     length 0.498676   
     axis -2.01367e-014 -90 -90   XYZ
    dof rx rz
    limits (-90.0 90.0)
           (-45.0 45.0)
  end
  begin
     id 29
     name rfingers
     direction -1 -4.48972e-011 6.31161e-026   
     length 0.402045   
     axis -4.02734e-014 -90 -90   XYZ
    dof rx
    limits (0.0 90.0)
  end
  begin
     id 30
     name rthumb
     direction -0.707107 -6.34849e-011 0.707107   
     length 0.577259   
     axis -90 -45 -2.85299e-015   XYZ
    dof rx rz
    limits (-45.0 45.0)
           (-45.0 45.0)
  end
:hierarchy
  begin
    root lhipjoint rhipjoint lowerback
    lhipjoint lfemur
    lfemur ltibia
    ltibia lfoot
    lfoot ltoes
    rhipjoint rfemur
    rfemur rtibia
    rtibia rfoot
    rfoot rtoes
    lowerback upperback
    upperback thorax
    thorax lowerneck lclavicle rclavicle
    lowerneck upperneck
    upperneck head
    lclavicle lhumerus
    lhumerus lradius
    lradius lwrist
    lwrist lhand lthumb
    lhand lfingers
    rclavicle rhumerus
    rhumerus rradius
    rradius rwrist
    rwrist rhand rthumb
    rhand rfingers
  end

#!OML:ASF H:\Pregnant\Project 1\Capture day 1\Session 1\femalepreg.ASF
:FULLY-SPECIFIED
:DEGREES
128
root 7.73156 16.132 24.5018 117.073 -67.9869 -104.31
lowerback -3.29884 7.26202 -6.10774
upperback -4.87813 9.85877 5.87134
thorax -5.42622 5.35304 9.34405
lowerneck -28.4415 -0.413134 -2.75781
upperneck 27.1565 -1.39599 5.64975
head 14.0958 -0.0993326 2.46499
rclavicle -7.73272e-014 -1.43125e-014
rhumerus -42.9593 42.0721 -106.493
rradius 25.1057
rwrist 8.97246
rhand 5.39025 -18.5077
rfingers 7.12502
rthumb 30.7421 -45.958
lclavicle -7.73272e-014 -1.43125e-014
lhumerus -17.6024 35.2702 6.16108
lradius 31.0525
lwrist 22.5124
lhand -30.3931 -1.05579
lfingers 7.12502
lthumb -3.69709 28.8919
rfemur -141.682 -5.6494 70.781
rtibia 158.322
rfoot 38.023 -18.4089
rtoes 0.248656
lfemur -18.6383 -11.6639 -3.95561
ltibia 16.1747
lfoot -5.01642 13.4643
ltoes 15.7947
129
root 7.72479 16.131 24.5128 117.341 -68.0588 -104.489
lowerback -3.33175 7.24421 -6.00486
upperback -4.94145 9.83214 5.92976
thorax -5.46307 5.33842 9.35303
lowerneck -28.4144 -0.370911 -2.74945
upperneck 27.2466 -1.30683 5.53812
head 14.1224 -0.0776907 2.43776
rclavicle -1.80894e-014 -2.22639e-014
rhumerus -43.1957 42.123 -106.615
rradius 25.0898
rwrist 9.07449
rhand 5.50608 -18.5592
rfingers 7.12502
rthumb 30.8526 -45.9886
lclavicle -1.80894e-014 -2.22639e-014
lhumerus -17.5802 35.1592 6.06744
lradius 31.1048
lwrist 22.5376
lhand -30.3853 -1.05547
lfingers 7.12502
lthumb -3.68957 28.8923
rfemur -141.696 -5.65981 70.6495
rtibia 158.42
rfoot 38.1214 -18.4848
rtoes 0.17778
lfemur -18.6487 -11.689 -4.07794
ltibia 16.0614
lfoot -4.95799 13.5076
ltoes 15.8007
130
root 7.71823 16.13 24.5235 117.632 -68.1248 -104.696
lowerback -3.35385 7.23612 -5.90521
upperback -5.00866 9.81843 5.9824
thorax -5.51254 5.33078 9.35479
lowerneck -28.3809 -0.332607 -2.73303
upperneck 27.3286 -1.22683 5.42712
head 14.1449 -0.0591499 2.40726
rclavicle -8.80616e-014 -2.8625e-014
rhumerus -43.4206 42.1368 -106.723
rradius 25.0739
rwrist 9.20328
rhand 5.62256 -18.5992
rfingers 7.12502
rthumb 30.9636 -46.0076
lclavicle -8.80616e-014 -2.8625e-014
lhumerus -17.5293 35.0549 5.98878
lradius 31.1415
lwrist 22.5538
lhand -30.3894 -1.03105
lfingers 7.12502
lthumb -3.69354 28.9167
rfemur -141.696 -5.64927 70.5346
rtibia 158.509
rfoot 38.165 -18.5895
rtoes 0.133007
lfemur -18.6519 -11.7186 -4.19644
ltibia 15.9459
lfoot -4.897 13.5654
ltoes 15.8029
131
root 7.71189 16.129 24.5335 117.947 -68.1834 -104.933
lowerback -3.37496 7.22902 -5.81852
upperback -5.0674 9.80646 6.0424
thorax -5.55783 5.3245 9.3721
lowerneck -28.3506 -0.292859 -2.72409
upperneck 27.4004 -1.14118 5.31864
head 14.1635 -0.03855 2.37991
rclavicle 6.04305e-014 3.18055e-015
rhumerus -43.6482 42.1829 -106.834
rradius 25.0686
rwrist 9.30824
rhand 5.72081 -18.6258
rfingers 7.12502
rthumb 31.0573 -46.0164
lclavicle 6.04305e-014 3.18055e-015
lhumerus -17.4989 34.969 5.90344
lradius 31.1723
lwrist 22.5669
lhand -30.4061 -1.00799
lfingers 7.12502
lthumb -3.7096 28.9395
rfemur -141.687 -5.62235 70.4328
rtibia 158.59
rfoot 38.1442 -18.7342
rtoes 0.179963
lfemur -18.6443 -11.7461 -4.31139
ltibia 15.8266
lfoot -4.83166 13.6349
ltoes 15.7782
132
root 7.70571 16.1281 24.543 118.293 -68.234 -105.207
lowerback -3.39686 7.22676 -5.74009
upperback -5.11863 9.80125 6.1002
thorax -5.59718 5.32156 9.39173
lowerneck -28.3254 -0.253123 -2.71066
upperneck 27.4615 -1.05831 5.21483
head 14.179 -0.017847 2.35292
rclavicle 7.54388e-014 4.45278e-014
rhumerus -43.8661 42.2492 -106.953
rradius 25.0726
rwrist 9.37876
rhand 5.80254 -18.6494
rfingers 7.12502
rthumb 31.1351 -46.0251
lclavicle 7.54388e-014 4.45278e-014
lhumerus -17.4863 34.8623 5.81792
lradius 31.2242
lwrist 22.6166
lhand -30.4507 -0.964695
lfingers 7.12502
lthumb -3.75267 28.982
rfemur -141.659 -5.55505 70.3493
rtibia 158.658
rfoot 38.0596 -18.9206
rtoes 0.268302
lfemur -18.6246 -11.7698 -4.42284
ltibia 15.7029
lfoot -4.76984 13.7141
ltoes 15.7596
133
root 7.69967 16.127 24.5521 118.688 -68.2839 -105.533
lowerback -3.41616 7.224 -5.70988
upperback -5.16918 9.79671 6.17882
thorax -5.65101 5.32283 9.46074
lowerneck -28.2969 -0.212191 -2.72086
upperneck 27.525 -0.963255 5.11228
head 14.1943 0.00556685 2.33285
rclavicle 7.96133e-014 -2.62396e-014
rhumerus -44.1191 42.3632 -107.077
rradius 25.0912
rwrist 9.40165
rhand 5.86662 -18.6735
rfingers 7.12502
rthumb 31.1962 -46.0374
lclavicle 7.96133e-014 -2.62396e-014
lhumerus -17.5126 34.7763 5.73081
lradius 31.267
lwrist 22.6436
lhand -30.4968 -0.933568
lfingers 7.12502
lthumb -3.7972 29.0123
rfemur -141.626 -5.4526 70.2995
rtibia 158.715
rfoot 37.9328 -19.1333
rtoes 0.361114
lfemur -18.5943 -11.786 -4.54133
ltibia 15.5726
lfoot -4.7098 13.8002
ltoes 15.7251
